<?xml version="1.0" ?><!DOCTYPE svg  PUBLIC '-//W3C//DTD SVG 1.1//EN'  'http://www.w3.org/Graphics/SVG/1.1/DTD/svg11.dtd'><svg enable-background="new 0 0 512 512" height="512px" id="Слой_1" version="1.1" viewBox="0 0 512 512" width="512px" xml:space="preserve" xmlns="http://www.w3.org/2000/svg" xmlns:xlink="http://www.w3.org/1999/xlink"><g id="wrench"><g><path d="M512,256c0,141.391-114.609,255.992-256,255.992C114.609,511.984,0,397.383,0,256.008    c0-141.391,114.609-255.992,256-256C397.391,0.008,512,114.617,512,256z" fill="#FA6E51"/><path d="M302.195,209.852L112.727,399.32l110.516,110.516c10.734,1.367,21.648,2.156,32.758,2.156    c139.391-0.008,252.656-111.398,255.852-250.016L356.742,106.875l-78.773,78.766L302.195,209.852z" fill="#E8573F"/></g><g><path d="M405.531,156.766l-41.086,41.094c-6.703,6.703-23.188,1.086-36.813-12.523    C314,171.703,308.391,155.227,315.109,148.5l0,0l41.633-41.625c-5.984-1.688-12.297-2.57-18.82-2.578    c-38.555,0.008-69.789,31.234-69.789,69.773c0,8.43,1.5,16.523,4.242,23.984L112.914,357.5c-5.32,5.313-8.594,12.672-8.617,20.797    c0,16.234,13.172,29.398,29.406,29.406c8.133,0,15.484-3.281,20.797-8.617l0,0l159.461-159.438    c7.461,2.727,15.539,4.227,23.961,4.219c38.539,0,69.781-31.258,69.781-69.797C407.703,168.109,406.945,162.297,405.531,156.766z" fill="#F4F6F9" id="wrench_3_"/><path d="M122.078,378.328c0,6.422,5.219,11.625,11.625,11.625c6.43,0,11.633-5.203,11.633-11.625    s-5.203-11.633-11.633-11.633C127.297,366.695,122.078,371.906,122.078,378.328z" fill="#CBD0D8"/></g></g></svg>